<svg xmlns="http://www.w3.org/2000/svg" xmlns:xlink="http://www.w3.org/1999/xlink" viewBox="0 0 281.79 116.04"><defs><style>.cls-1{fill:#fff;}.cls-2{fill:url(#linear-gradient);}.cls-3{fill:url(#linear-gradient-2);}</style><linearGradient id="linear-gradient" x1="138.11" y1="-185.58" x2="144.21" y2="-243.6" gradientTransform="matrix(1, 0, 0, -1, 0, -137.21)" gradientUnits="userSpaceOnUse"><stop offset="0" stop-color="#bd1a1d"/><stop offset="0.17" stop-color="#b31a1e"/><stop offset="0.71" stop-color="#98191f"/><stop offset="1" stop-color="#8e181f"/></linearGradient><linearGradient id="linear-gradient-2" x1="140.8" y1="-211.16" x2="136.81" y2="-154.12" gradientTransform="matrix(1, 0, 0, -1, 0, -137.21)" gradientUnits="userSpaceOnUse"><stop offset="0" stop-color="#b53039"/><stop offset="0.07" stop-color="#b82e34"/><stop offset="0.29" stop-color="#c02728"/><stop offset="0.52" stop-color="#c52120"/><stop offset="0.75" stop-color="#c91d1b"/><stop offset="1" stop-color="#ca1b19"/></linearGradient></defs><g id="Ebene_4" data-name="Ebene 4"><path class="cls-1" d="M275,0,26.25,17.63A73,73,0,0,1,15.75,32,100.15,100.15,0,0,1,0,44.63L3.67,94.56a39.64,39.64,0,0,1,16.06,8.19A113.11,113.11,0,0,1,33.58,116L281.79,99.13Z"/><path class="cls-2" d="M271.7,59,133.64,72.35,39.89,64.65a5.41,5.41,0,0,1-1.58,2.5c-1.09,1.14-3.36,2.51-4.62,3.72-3.27,3.13-3.42,4.5-3.42,4.5a7.8,7.8,0,0,0-2-2.42,16.28,16.28,0,0,0-3.84-2.56,17.56,17.56,0,0,1-4.09-2.61,5.84,5.84,0,0,1-1.69-4.08c0-.28,0-.53,0-.78L8,62,9.9,89s5.44,1.56,14.16,8.31a91.07,91.07,0,0,1,12.33,12L274.07,92.74Z"/><path class="cls-3" d="M268.12,7.73,30.56,24.34A67.8,67.8,0,0,1,22.4,34.87,100.38,100.38,0,0,1,7,48.1L8,62.37s3.88.63,10.6,1.57c0-.08,0-.16,0-.24a7.14,7.14,0,0,1,1.45-4.84A4.93,4.93,0,0,1,24,57a5.61,5.61,0,0,1,3.63,1.52,8.69,8.69,0,0,1,1.59,2.17s1.61-5,6.33-4.3c0,0,3.59.48,4.45,5a6,6,0,0,1-1.14,5.19c25.58,3.09,63.22,6.69,97.78,6.43,66.33-.5,135.14-13,135.14-13Z"/><path class="cls-1" d="M75.6,47.74a13,13,0,0,0-8.33-3.1c-1.5,0-4.32.09-6.44.24l-7.44.52L56,82.1l9-.63c2.18-.15,3.92-.38,5.3-.58a13.05,13.05,0,0,0,8.6-5.94A21,21,0,0,0,81.67,62.1C81.21,55.46,79.23,50.85,75.6,47.74Zm-8.54,27.5-4,.28L61.34,50.71l3.4-.23c2.92-.2,4.7.74,6.06,2.67,1.66,2.34,2.28,5.93,2.58,10.23C73.93,71.18,71.95,74.9,67.06,75.24Z"/><path class="cls-1" d="M105.79,70c0-.16,0-.32,0-.48l-.48-9.15c-.2-2.92-.37-3.76-.82-4.85-1.27-3-4.53-4.43-9.1-4.11A18.45,18.45,0,0,0,88,53.54a20.36,20.36,0,0,0-4.25,2.54L87.17,61c2.78-2.17,5.36-3.47,7.64-3.63,2.6-.18,3.26.79,3.47,3.81l.08,1.12c-.75,0-1.07,0-1.6.06-8.66.6-12.86,3.89-12.41,10.26.38,5.42,3.89,8.27,9.95,7.84a9.4,9.4,0,0,0,5.37-1.87A12.09,12.09,0,0,0,101.2,77a7.62,7.62,0,0,0,4.05,3l3.47-4.62C106.55,74,106,72.94,105.79,70ZM95.3,75.13c-1.8.12-3.23-1.22-3.38-3.34-.22-3.24,1.41-4.26,6.35-4.61l.32,0L98.9,73A5.16,5.16,0,0,1,95.3,75.13Z"/><path class="cls-1" d="M141.06,55.48c-.45,2.82-1.23,10.12-1.27,11.18,0,0-1.31-5.62-2.22-8.68l-4.47-14.62-8.21.58L122.49,57.6a100.94,100.94,0,0,0-1.19,10.75,80.67,80.67,0,0,0-2.75-10.81l-4.14-12.87-7.94.56L117.73,78.1l8.53-.6,2.1-13.84c.73-5,1.16-9.68,1.16-9.68A82.48,82.48,0,0,0,132,63.51l4.27,13.29,8.21-.57,6.68-34.13-7.89.55Z"/><path class="cls-1" d="M174.83,65.2c0-.16,0-.32,0-.48l-.48-9.15c-.21-2.92-.37-3.77-.82-4.86-1.28-3-4.53-4.43-9.1-4.11a18.41,18.41,0,0,0-7.32,2.11,20.26,20.26,0,0,0-4.26,2.54l3.39,4.89c2.78-2.17,5.36-3.47,7.65-3.63,2.6-.18,3.25.79,3.47,3.82l.08,1.11c-.75,0-1.07,0-1.6.06-8.65.6-12.86,3.89-12.41,10.26.38,5.42,3.89,8.27,9.94,7.84a9.43,9.43,0,0,0,5.37-1.87,11.57,11.57,0,0,0,1.55-1.55,7.61,7.61,0,0,0,4.05,3l3.46-4.62C175.59,69.2,175,68.11,174.83,65.2ZM164.35,70.3c-1.8.13-3.24-1.22-3.38-3.34-.23-3.24,1.41-4.26,6.35-4.61l.32,0,.3,5.85A5.19,5.19,0,0,1,164.35,70.3Z"/><path class="cls-1" d="M200,48.16c-1-2.28-3.78-3.68-6.81-3.47a11.19,11.19,0,0,0-4.8,1.51,24.33,24.33,0,0,0-3,2.24,7,7,0,0,0-1.25-3.33L178,47.36a19.58,19.58,0,0,1,1.4,6.31l1.38,19.71,7.12-.5-1.35-19.23a8.34,8.34,0,0,1,4.77-2.79c1.86-.13,2.45.74,2.67,3.82l1.24,17.69,7-.49L200.84,52A11.16,11.16,0,0,0,200,48.16Z"/><path class="cls-1" d="M227,31.76l-7.14-.62.65,9.35a33.89,33.89,0,0,0,.5,4,7.34,7.34,0,0,0-4.94-1.2c-6.9.49-11.22,6.66-10.63,15.16s5.32,13.51,12.22,13a9.16,9.16,0,0,0,6.11-2.72,4.78,4.78,0,0,0,.54,1.56l6.37-.44c-.55-1-1.24-3.17-1.7-9.86Zm-8.16,33.61c-3.72.26-5.07-1.57-5.48-7.41-.42-6.05.77-8.81,4-9a5.94,5.94,0,0,1,4,1.48l.91,13A5.11,5.11,0,0,1,218.81,65.37Z"/><path class="cls-1" d="M254.67,59.61c0-.16,0-.32,0-.48L254.15,50c-.21-2.92-.37-3.76-.82-4.85-1.27-3-4.52-4.43-9.09-4.11a18.42,18.42,0,0,0-7.32,2.11,20.41,20.41,0,0,0-4.26,2.54L236,50.56c2.78-2.17,5.36-3.47,7.65-3.63,2.6-.18,3.26.79,3.47,3.82l.08,1.11c-.75,0-1.06,0-1.59.06-8.66.6-12.86,3.89-12.41,10.26.37,5.42,3.88,8.27,9.94,7.85a9.42,9.42,0,0,0,5.37-1.87,12.72,12.72,0,0,0,1.54-1.55,7.6,7.6,0,0,0,4.05,3L257.61,65C255.43,63.61,254.87,62.53,254.67,59.61Zm-10.48,5.11c-1.81.13-3.23-1.21-3.38-3.34-.23-3.24,1.41-4.26,6.35-4.61l.32,0,.3,5.85A5.16,5.16,0,0,1,244.19,64.72Z"/></g></svg>
